<svg width="313" height="527" viewBox="0 0 313 527" fill="none" xmlns="http://www.w3.org/2000/svg">
<g filter="url(#filter0_f_485_688)">
<path fill-rule="evenodd" clip-rule="evenodd" d="M110.865 143.462C133.636 143.691 152.28 125.417 152.509 102.646C152.738 79.8755 134.464 61.2308 111.693 61.0021C88.9227 60.7734 70.278 79.0473 70.0493 101.818C69.8206 124.589 88.0945 143.233 110.865 143.462ZM162.699 215.1C158.707 184.987 131.06 163.813 100.948 167.805C71.5901 171.697 50.7277 198.073 53.4002 227.298C53.3995 227.335 53.3984 227.376 53.3971 227.42C53.3695 228.327 53.2161 230.536 52.4471 233.629C51.0124 239.399 47.1113 249.702 35.1655 261.415L35.1654 261.415C34.3947 262.171 33.6217 262.907 32.8471 263.624L32.8468 263.624C13.0465 281.954 -11.0032 305.378 -30.189 332.671C-49.45 360.071 -66.5751 395.231 -66.9918 436.743C-67.8713 524.347 2.37016 596.713 90.3592 597.597C178.165 598.479 250.025 527.991 250.906 440.202L251.442 386.8C251.747 356.426 227.371 331.556 196.997 331.251C166.623 330.946 141.753 355.322 141.448 385.696L140.912 439.098C140.64 466.178 118.481 487.874 91.4643 487.602C64.63 487.333 42.7289 465.111 43.0026 437.847C43.1149 426.659 47.7588 413.061 59.8013 395.93C71.919 378.692 88.7067 361.811 107.573 344.346C109.113 342.92 110.649 341.458 112.178 339.959C139.96 312.718 153.312 283.841 159.197 260.171C162.088 248.543 163.112 238.466 163.346 230.767C163.464 226.911 163.384 223.621 163.235 220.991C163.161 219.675 163.069 218.519 162.974 217.534C162.927 217.042 162.879 216.592 162.833 216.186C162.81 215.983 162.787 215.791 162.764 215.61C162.753 215.519 162.742 215.431 162.731 215.346L162.715 215.221L162.707 215.16C162.703 215.13 162.699 215.1 108.176 222.328L162.699 215.1Z" fill="#CCFF00"/>
</g>
<defs>
<filter id="filter0_f_485_688" x="-128" y="0" width="440.445" height="658.605" filterUnits="userSpaceOnUse" color-interpolation-filters="sRGB">
<feFlood flood-opacity="0" result="BackgroundImageFix"/>
<feBlend mode="normal" in="SourceGraphic" in2="BackgroundImageFix" result="shape"/>
<feGaussianBlur stdDeviation="30.5" result="effect1_foregroundBlur_485_688"/>
</filter>
</defs>
</svg>
